<?xml version="1.0" encoding="UTF-8" standalone="no"?>
<svg width="35px" height="24px" viewBox="0 0 35 24" version="1.1" xmlns="http://www.w3.org/2000/svg" xmlns:xlink="http://www.w3.org/1999/xlink" xmlns:sketch="http://www.bohemiancoding.com/sketch/ns">
    <!-- Generator: sketchtool 3.5.2 (25235) - http://www.bohemiancoding.com/sketch -->
    <title>1453907259_08.Credit-Card Copy</title>
    <desc>Created with sketchtool.</desc>
    <defs></defs>
    <g id="Page-1" stroke="none" stroke-width="1" fill="none" fill-rule="evenodd" sketch:type="MSPage">
        <g id="Web-ver.1.0-27.01.16" sketch:type="MSArtboardGroup" transform="translate(-111.000000, -261.000000)" fill="#7E7E7E">
            <g id="1453907259_08.Credit-Card-Copy" sketch:type="MSLayerGroup" transform="translate(111.000000, 261.000000)">
                <path d="M31.9565217,24 L3.04347826,24 C1.36271739,24 0,22.65675 0,21 L0,3 C0,1.34325 1.36271739,0 3.04347826,0 L31.9565217,0 C33.6372826,0 35,1.34325 35,3 L35,21 C35,22.65675 33.6372826,24 31.9565217,24 L31.9565217,24 Z M1.52173913,9.75 L33.4782609,9.75 L33.4782609,6.75 L1.52173913,6.75 L1.52173913,9.75 L1.52173913,9.75 Z M33.4782609,3 C33.4782609,2.172 32.7965217,1.5 31.9565217,1.5 L3.04347826,1.5 C2.20347826,1.5 1.52173913,2.172 1.52173913,3 L1.52173913,5.25 L33.4782609,5.25 L33.4782609,3 L33.4782609,3 Z M33.4782609,11.25 L1.52173913,11.25 L1.52173913,21 C1.52173913,21.828 2.20347826,22.5 3.04347826,22.5 L31.9565217,22.5 C32.7965217,22.5 33.4782609,21.828 33.4782609,21 L33.4782609,11.25 L33.4782609,11.25 Z M19.0217391,15.75 L15.9782609,15.75 C15.5575,15.75 15.2173913,15.41475 15.2173913,15 C15.2173913,14.586 15.5575,14.25 15.9782609,14.25 L19.0217391,14.25 C19.4425,14.25 19.7826087,14.586 19.7826087,15 C19.7826087,15.41475 19.4425,15.75 19.0217391,15.75 L19.0217391,15.75 Z M12.173913,15.75 L5.32608696,15.75 C4.90532609,15.75 4.56521739,15.41475 4.56521739,15 C4.56521739,14.586 4.90532609,14.25 5.32608696,14.25 L12.173913,14.25 C12.5946739,14.25 12.9347826,14.586 12.9347826,15 C12.9347826,15.41475 12.5946739,15.75 12.173913,15.75 L12.173913,15.75 Z M5.32608696,18 L9.89130435,18 C10.3120652,18 10.6521739,18.336 10.6521739,18.75 C10.6521739,19.16475 10.3120652,19.5 9.89130435,19.5 L5.32608696,19.5 C4.90532609,19.5 4.56521739,19.16475 4.56521739,18.75 C4.56521739,18.336 4.90532609,18 5.32608696,18 L5.32608696,18 Z" id="Shape" sketch:type="MSShapeGroup"></path>
            </g>
        </g>
    </g>
</svg>