<?xml version="1.0" encoding="UTF-8" standalone="no"?>
<svg width="33px" height="36px" viewBox="0 0 33 36" version="1.1" xmlns="http://www.w3.org/2000/svg" xmlns:xlink="http://www.w3.org/1999/xlink" xmlns:sketch="http://www.bohemiancoding.com/sketch/ns">
    <!-- Generator: sketchtool 3.5.2 (25235) - http://www.bohemiancoding.com/sketch -->
    <title>Group 11</title>
    <desc>Created with sketchtool.</desc>
    <defs></defs>
    <g id="Page-1" stroke="none" stroke-width="1" fill="none" fill-rule="evenodd" sketch:type="MSPage">
        <g id="Web-ver.1.0-27.01.16" sketch:type="MSArtboardGroup" transform="translate(-371.000000, -447.000000)" fill="#FFFFFF" opacity="0.157066231">
            <g id="Group-11" sketch:type="MSLayerGroup" transform="translate(371.000000, 447.000000)">
                <path d="M29.0881907,2.5 L3.89477995,2.5 C1.19584352,2.5 -1,4.74108055 -1,7.49561833 L-1,29.8540213 C-1,31.3759648 0.213105134,32.6140613 1.70432763,32.6140613 L3.89477995,32.6140613 C4.59982885,32.6140613 5.24257946,32.3370268 5.72462103,31.8839197 C6.09430318,32.9589572 7.09817848,33.7320688 8.27611247,33.7320688 L24.7064303,33.7320688 C25.8844499,33.7320688 26.8883252,32.9589572 27.2583496,31.8839197 C27.7403912,32.3370268 28.3827995,32.6140613 29.0881907,32.6140613 L31.278643,32.6140613 C32.7698655,32.6140613 33.9829707,31.3759648 33.9829707,29.8540213 L33.9829707,7.49561833 C33.9829707,4.74108055 31.7871271,2.5 29.0881907,2.5 L29.0881907,2.5 Z M23.2761369,15.9152165 L14.4448411,6.90163591 L15.731198,6.90163591 L24.5624083,15.9152165 L23.2761369,15.9152165 Z M20.5377506,15.9152165 L11.7064548,6.90163591 L12.9928117,6.90163591 L21.824022,15.9152165 L20.5377506,15.9152165 Z M17.7993643,15.9152165 L8.96806846,6.90163591 L10.2544254,6.90163591 L19.0856357,15.9152165 L17.7993643,15.9152165 Z M15.060978,15.9152165 L6.99617359,7.68426735 C6.91830073,7.60444087 6.82108802,7.55605588 6.72011002,7.53858838 C6.87790954,7.21858374 7.17707824,6.98390785 7.53409535,6.92006412 L16.3472494,15.9152165 L15.060978,15.9152165 Z M12.3225917,15.9152165 L6.59910758,10.0734723 L6.59910758,8.76096419 L13.6088631,15.9152165 L12.3225917,15.9152165 Z M9.58420538,15.9152165 L6.59910758,12.8682727 L6.59910758,11.5557646 L10.8704768,15.9152165 L9.58420538,15.9152165 Z M6.59910758,14.3503029 L8.13209046,15.9152165 L7.72860636,15.9152165 C7.1058802,15.9152165 6.59910758,15.3980037 6.59910758,14.762012 L6.59910758,14.3503029 Z M25.8456846,15.7425502 L17.1832274,6.90163591 L18.4695844,6.90163591 L26.3658068,14.9609668 C26.3093276,15.2911899 26.1150733,15.5726787 25.8456846,15.7425502 L25.8456846,15.7425502 Z M21.2079707,6.90163591 L26.3838631,12.1845946 L26.3838631,13.4970154 L19.9216137,6.90163591 L21.2079707,6.90163591 Z M23.946357,6.90163591 L26.3838631,9.38979428 L26.3838631,10.7022151 L22.66,6.90163591 L23.946357,6.90163591 Z M25.4104523,6.91429985 C25.908154,6.9849559 26.3023105,7.38714514 26.3717971,7.8951001 L25.4104523,6.91429985 Z M8.24205379,3.54805014 L24.7409169,3.54805014 L24.7409169,5.85358577 L8.24205379,5.85358577 L8.24205379,3.54805014 Z M3.89477995,31.5660112 L1.70432763,31.5660112 C0.779352078,31.5660112 0.0268948655,30.7980525 0.0268948655,29.8540213 L0.0268948655,7.49561833 C0.0268948655,5.31899286 1.76209046,3.54805014 3.89477995,3.54805014 L7.21515892,3.54805014 L7.21515892,5.91742949 C6.27315403,6.15315344 5.57221271,7.02172499 5.57221271,8.05484041 L5.57221271,29.8540213 C5.57221271,30.7980525 4.8197555,31.5660112 3.89477995,31.5660112 L3.89477995,31.5660112 Z M26.3838631,30.9720288 C26.3838631,31.9160599 25.6314059,32.6840187 24.7064303,32.6840187 L8.27611247,32.6840187 C7.35156479,32.6840187 6.59910758,31.9160599 6.59910758,30.9720288 L6.59910758,30.4132434 C6.59910758,30.3542032 6.58909535,30.2975212 6.57138142,30.244682 C6.58943765,30.1170819 6.59910758,29.9867743 6.59910758,29.8540213 L6.59910758,16.6360129 C6.92771394,16.8431775 7.31476773,16.9632666 7.72860636,16.9632666 L25.2543643,16.9632666 C25.6682029,16.9632666 26.0552567,16.8431775 26.3838631,16.6360129 L26.3838631,29.8540213 C26.3838631,29.9867743 26.393533,30.1170819 26.4115892,30.244682 C26.3938753,30.2975212 26.3838631,30.3542032 26.3838631,30.4132434 L26.3838631,30.9720288 Z M32.9560758,29.8540213 C32.9560758,30.7980525 32.2036186,31.5660112 31.278643,31.5660112 L29.0881907,31.5660112 C28.1632152,31.5660112 27.4107579,30.7980525 27.4107579,29.8540213 L27.4107579,8.05484041 C27.4107579,7.02172499 26.7098166,6.15315344 25.7678117,5.91742949 L25.7678117,3.54805014 L29.0881907,3.54805014 C31.2207946,3.54805014 32.9560758,5.31899286 32.9560758,7.49561833 L32.9560758,29.8540213 Z" id="armchair" sketch:type="MSShapeGroup" transform="translate(16.500000, 18.177083) rotate(-270.000000) translate(-16.500000, -18.177083) "></path>
            </g>
        </g>
    </g>
</svg>