<?xml version="1.0" encoding="UTF-8" standalone="no"?>
<svg width="607px" height="174px" viewBox="0 0 607 174" version="1.1" xmlns="http://www.w3.org/2000/svg" xmlns:xlink="http://www.w3.org/1999/xlink" xmlns:sketch="http://www.bohemiancoding.com/sketch/ns">
    <!-- Generator: sketchtool 3.5.2 (25235) - http://www.bohemiancoding.com/sketch -->
    <title>Group 8</title>
    <desc>Created with sketchtool.</desc>
    <defs>
        <path id="path-1" d="M0,1.07179487 L176.285692,1.07179487 L176.285692,32.7179487 L0,32.7179487"></path>
        <path id="path-3" d="M0,1.07179487 L176.285692,1.07179487 L176.285692,32.7179487 L0,32.7179487"></path>
        <path id="path-5" d="M0,1.07179487 L176.285692,1.07179487 L176.285692,32.7179487 L0,32.7179487"></path>
        <path id="path-7" d="M0,1.07179487 L176.285692,1.07179487 L176.285692,32.7179487 L0,32.7179487"></path>
    </defs>
    <g id="Page-1" stroke="none" stroke-width="1" fill="none" fill-rule="evenodd" sketch:type="MSPage">
        <g id="Web-ver.1.0-27.01.16" sketch:type="MSArtboardGroup" transform="translate(-301.000000, -356.000000)">
            <g id="Group-8" sketch:type="MSLayerGroup" transform="translate(302.000000, 355.000000)">
                <g id="Page-1" transform="translate(44.102804, 0.000000)">
                    <path d="M67.7547981,4.56889231 C70.4145364,12.723559 73.0754056,20.8793538 75.7351439,29.0340205 C76.4079944,31.0963795 79.685172,30.2141231 79.0066673,28.1337128 C76.346929,19.9790462 73.6860598,11.8243795 71.0263215,3.66858462 C70.353471,1.60622564 67.0762935,2.48961026 67.7547981,4.56889231" id="Fill-1" stroke="#FFFFFF" sketch:type="MSShapeGroup"></path>
                    <mask id="mask-2" sketch:name="Clip 4" fill="white">
                        <use xlink:href="#path-1"></use>
                    </mask>
                    <g id="Clip-4"></g>
                    <path d="M151.803999,4.64188718 C156.491336,13.7171692 161.178672,22.7913231 165.864878,31.8666051 C166.865672,33.8026051 169.79455,32.0933744 168.794887,30.1573744 C164.10755,21.0832205 159.420214,12.0079385 154.732878,2.93378462 C153.733214,0.99665641 150.804336,2.70701538 151.803999,4.64188718" id="Fill-3" stroke="#FFFFFF" sketch:type="MSShapeGroup" mask="url(#mask-2)"></path>
                    <mask id="mask-4" sketch:name="Clip 7" fill="white">
                        <use xlink:href="#path-3"></use>
                    </mask>
                    <g id="Clip-7"></g>
                    <path d="M1.63858879,4.4566359 L174.647103,4.4566359 C176.830757,4.4566359 176.83415,1.07202051 174.647103,1.07202051 L1.63858879,1.07202051 C-0.543934579,1.07202051 -0.548457944,4.4566359 1.63858879,4.4566359" id="Fill-6" stroke="#FFFFFF" sketch:type="MSShapeGroup" mask="url(#mask-4)"></path>
                </g>
                <g id="Page-1-Copy" transform="translate(132.308411, 159.641026) scale(1, -1) translate(-132.308411, -159.641026) translate(44.102804, 143.282051)">
                    <path d="M67.7547981,4.56889231 C70.4145364,12.723559 73.0754056,20.8793538 75.7351439,29.0340205 C76.4079944,31.0963795 79.685172,30.2141231 79.0066673,28.1337128 C76.346929,19.9790462 73.6860598,11.8243795 71.0263215,3.66858462 C70.353471,1.60622564 67.0762935,2.48961026 67.7547981,4.56889231" id="Fill-1" stroke="#FFFFFF" sketch:type="MSShapeGroup"></path>
                    <mask id="mask-6" sketch:name="Clip 4" fill="white">
                        <use xlink:href="#path-5"></use>
                    </mask>
                    <g id="Clip-4"></g>
                    <path d="M151.803999,4.64188718 C156.491336,13.7171692 161.178672,22.7913231 165.864878,31.8666051 C166.865672,33.8026051 169.79455,32.0933744 168.794887,30.1573744 C164.10755,21.0832205 159.420214,12.0079385 154.732878,2.93378462 C153.733214,0.99665641 150.804336,2.70701538 151.803999,4.64188718" id="Fill-3" stroke="#FFFFFF" sketch:type="MSShapeGroup" mask="url(#mask-6)"></path>
                    <mask id="mask-8" sketch:name="Clip 7" fill="white">
                        <use xlink:href="#path-7"></use>
                    </mask>
                    <g id="Clip-7"></g>
                    <path d="M1.63858879,4.4566359 L174.647103,4.4566359 C176.830757,4.4566359 176.83415,1.07202051 174.647103,1.07202051 L1.63858879,1.07202051 C-0.543934579,1.07202051 -0.548457944,4.4566359 1.63858879,4.4566359" id="Fill-6" stroke="#FFFFFF" sketch:type="MSShapeGroup" mask="url(#mask-8)"></path>
                </g>
                <g id="Page-1" transform="translate(0.000000, 25.948718)" stroke="#FFFFFF" sketch:type="MSShapeGroup">
                    <path d="M41.1751692,5.18985641 C16.9627299,13.7822667 -0.665952336,37.9224718 0.0193373832,63.8294462 C0.688795327,89.1497538 18.5244215,112.078267 42.4428421,119.95201 C44.5201972,120.636831 45.4113,117.369549 43.3441224,116.689241 C20.8867486,109.294985 4.04060841,87.5950872 3.41186075,63.8294462 C2.76841215,39.4929333 19.2639916,16.5486256 42.0775804,8.45375385 C44.1198794,7.72831795 43.240085,4.45765128 41.1751692,5.18985641" id="Fill-1"></path>
                    <path d="M43.6731972,119.612195 C86.1769916,121.746759 128.684179,124.457836 171.263739,124.064092 C211.200524,123.695169 253.812879,119.048092 289.893496,100.563579 C297.985795,96.4174256 305.899421,93.0091179 311.811459,85.8122974 C316.968094,79.5338359 319.770319,72.0436821 320.564169,64.0142462 C320.779029,61.8480923 317.384244,61.862759 317.171646,64.0142462 C316.309945,72.7239897 312.574777,80.7974256 306.217188,86.8795795 C300.505309,92.3434769 292.595076,95.5543487 285.544281,98.9446051 C268.02416,107.367785 248.331693,112.442451 229.269104,115.978246 C190.642964,123.143477 150.34544,121.162349 111.279403,119.574964 C88.7349542,118.65999 66.2074682,117.359169 43.6731972,116.227579 C41.4906738,116.118144 41.4974589,119.502759 43.6731972,119.612195" id="Fill-3"></path>
                    <path d="M43.6731972,8.14891282 C83.0434308,6.17229744 122.413664,3.67106667 161.849487,3.65527179 C201.295487,3.63947692 240.501749,7.17865641 277.492693,21.9051179 C295.776132,29.1842974 315.010608,38.5201949 317.171646,60.3622462 C317.384244,62.5103487 320.779029,62.5317846 320.564169,60.3622462 C319.074851,45.3086051 310.121982,33.4951692 296.496478,27.1794769 C287.834235,23.1653231 279.596057,18.8555795 270.523319,15.7394769 C261.137337,12.5150667 251.52745,9.81301538 241.858758,7.57352821 C201.31358,-1.81313846 159.111721,-0.365651282 117.794179,1.16306667 C93.0739916,2.07804103 68.3775523,3.52327179 43.6731972,4.76429744 C41.5008514,4.87373333 41.4872813,8.25834872 43.6731972,8.14891282" id="Fill-5"></path>
                    <path d="M314.844601,48.5802872 C409.38405,60.0699282 504.834956,63.2198769 599.928517,57.9861333 C602.099732,57.8676718 602.114433,54.4819282 599.928517,54.6015179 C504.834956,59.8352615 409.38405,56.6853128 314.844601,45.1956718 C312.682433,44.9328 312.701657,48.3196718 314.844601,48.5802872" id="Fill-7"></path>
                    <path d="M318.237124,77.4018667 C412.776573,65.9122256 508.227479,62.7622769 603.32104,67.9960205 C605.502433,68.1156103 605.495648,64.7309949 603.32104,64.6114051 C508.227479,59.3776615 412.776573,62.5276103 318.237124,74.0172513 C316.097573,74.2767385 316.071564,77.6647385 318.237124,77.4018667" id="Fill-9"></path>
                </g>
            </g>
        </g>
    </g>
</svg>