<?xml version="1.0" encoding="UTF-8" standalone="no"?>
<svg width="33px" height="29px" viewBox="0 0 33 29" version="1.1" xmlns="http://www.w3.org/2000/svg" xmlns:xlink="http://www.w3.org/1999/xlink" xmlns:sketch="http://www.bohemiancoding.com/sketch/ns">
    <!-- Generator: sketchtool 3.5.2 (25235) - http://www.bohemiancoding.com/sketch -->
    <title>luggage38</title>
    <desc>Created with sketchtool.</desc>
    <defs>
        <path id="path-1" d="M0.00516350254,0.035283934 L32.8742995,0.035283934 L32.8742995,28.2624311 L0.00516350254,28.2624311 L0.00516350254,0.035283934 Z"></path>
    </defs>
    <g id="Page-1" stroke="none" stroke-width="1" fill="none" fill-rule="evenodd" sketch:type="MSPage">
        <g id="Web-ver.1.0-27.01.16" sketch:type="MSArtboardGroup" transform="translate(-352.000000, -256.000000)">
            <g id="luggage38" sketch:type="MSLayerGroup" transform="translate(352.000000, 256.000000)">
                <g id="Clip-2"></g>
                <path d="M30.7725818,5.45326109 L22.384558,5.45326109 L22.384558,3.12572626 C22.384558,1.42168437 20.9982437,0.035283934 19.2938575,0.035283934 L13.5374128,0.035283934 C11.8333709,0.035283934 10.4470565,1.42168437 10.4470565,3.12572626 L10.4470565,5.45326109 L2.0590327,5.45326109 C0.923750604,5.45326109 -7.10542736e-15,6.37709775 -7.10542736e-15,7.51229378 L-7.10542736e-15,26.1681145 C-7.10542736e-15,27.3033966 0.923750604,28.2271472 2.0590327,28.2271472 L30.7725818,28.2271472 C31.9078639,28.2271472 32.8312703,27.3033966 32.8312703,26.1681145 L32.8312703,7.51229378 C32.8316145,6.37709775 31.9078639,5.45326109 30.7725818,5.45326109 L30.7725818,5.45326109 Z M11.5486037,3.12572626 C11.5486037,2.02908438 12.4407709,1.1369172 13.5374128,1.1369172 L19.2942018,1.1369172 C20.3907576,1.1369172 21.2830108,2.02908438 21.2830108,3.12572626 L21.2830108,5.45326109 L20.21735,5.45326109 L20.21735,3.51531253 C20.21735,2.74483189 19.5904147,2.11789662 18.8201922,2.11789662 L14.0113363,2.11789662 C13.2411998,2.11789662 12.6142646,2.74483189 12.6142646,3.51531253 L12.6142646,5.45326109 L11.5486037,5.45326109 L11.5486037,3.12572626 Z M19.1157167,3.51531253 L19.1157167,5.45326109 L13.7155536,5.45326109 L13.7155536,3.51531253 C13.7155536,3.35223191 13.8483417,3.21944383 14.0113363,3.21944383 L18.819934,3.21944383 C18.9832728,3.21944383 19.1157167,3.35223191 19.1157167,3.51531253 L19.1157167,3.51531253 Z M4.37081884,15.5201117 L4.37081884,27.1255139 L2.0590327,27.1255139 C1.53089244,27.1255139 1.10163327,26.6962548 1.10163327,26.1681145 L1.10163327,7.51229378 C1.10163327,6.98449777 1.53089244,6.55489435 2.0590327,6.55489435 L4.37081884,6.55489435 L4.37081884,15.5201117 Z M5.47245211,19.3218265 L8.70532104,19.3218265 L8.70532104,27.0690596 L5.47245211,27.0690596 L5.47245211,19.3218265 Z M8.70532104,18.2201932 L7.639402,18.2201932 L7.639402,17.3152033 C7.639402,17.010987 7.39293082,16.7642576 7.08871446,16.7642576 C6.7844981,16.7642576 6.53811297,17.010987 6.53811297,17.3152033 L6.53811297,18.2201932 L5.47245211,18.2201932 L5.47245211,16.0710574 L8.70532104,16.0710574 L8.70532104,18.2201932 Z M8.70532104,14.9695102 L5.47245211,14.9695102 L5.47245211,11.6024763 C5.66005936,11.3778639 6.17331152,10.8893966 7.08871446,10.8893966 C8.00945302,10.8893966 8.52150035,11.3802735 8.70532104,11.6010993 L8.70532104,14.9695102 Z M8.70532104,10.198606 C8.29860916,9.96900223 7.76410059,9.78784935 7.08871446,9.78784935 C6.41401679,9.78784935 5.87916399,9.9696907 5.47245211,10.1996387 L5.47245211,6.61134865 L8.70532104,6.61134865 L8.70532104,10.198606 Z M27.3591624,27.0690596 L24.1262935,27.0690596 L24.1262935,25.9247414 C24.1262935,25.6205251 23.8794781,25.3737957 23.5752617,25.3737957 C23.2713896,25.3737957 23.0246602,25.6205251 23.0246602,25.9247414 L23.0246602,27.1255139 L9.80661008,27.1255139 L9.80661008,6.55489435 L23.0246602,6.55489435 L23.0246602,22.0639045 C23.0246602,22.3681209 23.2713896,22.614506 23.5752617,22.614506 C23.8794781,22.614506 24.1262935,22.3681209 24.1262935,22.0639045 L24.1262935,19.3218265 L27.3591624,19.3218265 L27.3591624,27.0690596 Z M27.3591624,18.2201932 L26.2935016,18.2201932 L26.2935016,17.3152033 C26.2935016,17.010987 26.0467722,16.7642576 25.7425558,16.7642576 C25.4386837,16.7642576 25.1918683,17.010987 25.1918683,17.3152033 L25.1918683,18.2201932 L24.1262935,18.2201932 L24.1262935,16.0710574 L27.3591624,16.0710574 L27.3591624,18.2201932 Z M27.3591624,14.9695102 L24.1262935,14.9695102 L24.1262935,11.6024763 C24.3138147,11.3778639 24.8271529,10.8893966 25.7425558,10.8893966 C26.6632944,10.8893966 27.1752557,11.3802735 27.3591624,11.6010993 L27.3591624,14.9695102 Z M27.3591624,10.198606 C26.9527087,9.96900223 26.417942,9.78784935 25.7425558,9.78784935 C25.0678582,9.78784935 24.5330054,9.9696907 24.1262935,10.1996387 L24.1262935,6.61134865 L27.3591624,6.61134865 L27.3591624,10.198606 Z M31.7299813,26.1681145 C31.7299813,26.6962548 31.3003779,27.1255139 30.7725818,27.1255139 L28.4607957,27.1255139 L28.4607957,6.55489435 L30.7725818,6.55489435 C31.3003779,6.55489435 31.7299813,6.98449777 31.7299813,7.51229378 L31.7299813,26.1681145 Z" id="Fill-1" fill="#848484" sketch:type="MSShapeGroup"></path>
            </g>
        </g>
    </g>
</svg>