<?xml version="1.0" encoding="UTF-8" standalone="no"?>
<svg width="19px" height="19px" viewBox="0 0 19 19" version="1.1" xmlns="http://www.w3.org/2000/svg" xmlns:xlink="http://www.w3.org/1999/xlink" xmlns:sketch="http://www.bohemiancoding.com/sketch/ns">
    <!-- Generator: sketchtool 3.5.2 (25235) - http://www.bohemiancoding.com/sketch -->
    <title>pencil124</title>
    <desc>Created with sketchtool.</desc>
    <defs>
        <path id="path-1" d="M0,0 L19,0 L19,19 L0,19 L0,0 Z"></path>
    </defs>
    <g id="Page-1" stroke="none" stroke-width="1" fill="none" fill-rule="evenodd" sketch:type="MSPage">
        <g id="Web-ver.1.0-27.01.16" sketch:type="MSArtboardGroup" transform="translate(-1140.000000, -53.000000)">
            <g id="pencil124" sketch:type="MSLayerGroup" transform="translate(1140.000000, 53.000000)">
                <mask id="mask-2" sketch:name="Clip 2" fill="white">
                    <use xlink:href="#path-1"></use>
                </mask>
                <g id="Clip-2"></g>
                <path d="M18.7982796,4.99018478 L16.405309,2.59714855 C16.4050337,2.59687319 16.404483,2.59632246 16.4042076,2.59577174 C16.4039322,2.59556522 16.4033815,2.59528986 16.4031061,2.59473913 L14.0098602,0.201702899 C13.8807839,0.0726268116 13.7057221,0 13.5230878,0 C13.3405223,0 13.1654605,0.0726268116 13.0363843,0.201702899 L1.44747026,11.7903261 C1.35233246,11.8855326 1.28720918,12.006279 1.26008596,12.1380399 L0.0142074845,18.1726051 C-0.0326041721,18.3995725 0.0378886755,18.6348696 0.201660633,18.7986413 C0.332044865,18.9290254 0.507657418,19 0.68836418,19 C0.734625111,19 0.781436768,18.9954565 0.827628859,18.9860254 L6.8619956,17.739942 C6.99348128,17.71275 7.11450318,17.6476957 7.20943447,17.5524891 L18.7982796,5.96386594 C19.0672401,5.69497464 19.0672401,5.25907609 18.7982796,4.99018478 L18.7982796,4.99018478 Z M2.35024683,13.6667826 L5.33325081,16.6497826 L1.5741371,17.4258225 L2.35024683,13.6667826 Z M6.72266208,16.0923116 L2.90764975,12.2773043 L13.5230878,1.6621558 L14.9437527,3.08281884 L8.52036737,9.50647101 C8.25140687,9.77536232 8.25140687,10.2110543 8.52036737,10.4799457 C8.65453784,10.6143913 8.83090764,10.6815797 9.00707092,10.6815797 C9.18316536,10.6815797 9.35932864,10.6143913 9.49377447,10.4799457 L15.917504,4.05622464 L17.3381001,5.47716304 L6.72266208,16.0923116 Z" id="Fill-1" fill="#FFFFFF" sketch:type="MSShapeGroup" mask="url(#mask-2)"></path>
            </g>
        </g>
    </g>
</svg>