<?xml version="1.0" encoding="UTF-8" standalone="no"?>
<svg width="18px" height="18px" viewBox="0 0 18 18" version="1.1" xmlns="http://www.w3.org/2000/svg" xmlns:xlink="http://www.w3.org/1999/xlink" xmlns:sketch="http://www.bohemiancoding.com/sketch/ns">
    <!-- Generator: sketchtool 3.5.2 (25235) - http://www.bohemiancoding.com/sketch -->
    <title>round69</title>
    <desc>Created with sketchtool.</desc>
    <defs>
        <path id="path-1" d="M0.003375,0 L18,0 L18,18 L0.003375,18 L0.003375,0 Z"></path>
    </defs>
    <g id="Page-1" stroke="none" stroke-width="1" fill="none" fill-rule="evenodd" sketch:type="MSPage">
        <g id="Web-ver.1.0-27.01.16" sketch:type="MSArtboardGroup" transform="translate(-928.000000, -54.000000)">
            <g id="round69" sketch:type="MSLayerGroup" transform="translate(928.000000, 54.000000)">
                <g id="Group-3">
                    <mask id="mask-2" sketch:name="Clip 2" fill="white">
                        <use xlink:href="#path-1"></use>
                    </mask>
                    <g id="Clip-2"></g>
                    <path d="M8.999775,0 C4.03723125,0 0,4.03745625 0,9 C0,13.9625438 4.03723125,18 8.999775,18 C13.9625438,18 18,13.9625438 18,9 C18,4.03745625 13.9625438,0 8.999775,0 L8.999775,0 Z M8.999775,16.81965 C4.6881,16.81965 1.18035,13.311675 1.18035,9 C1.18035,4.688325 4.6881,1.18035 8.999775,1.18035 C13.311675,1.18035 16.81965,4.688325 16.81965,9 C16.81965,13.311675 13.311675,16.81965 8.999775,16.81965 L8.999775,16.81965 Z" id="Fill-1" fill="#81F0FF" sketch:type="MSShapeGroup" mask="url(#mask-2)"></path>
                </g>
                <path d="M12.4334314,8.43343143 L9.56656857,8.43343143 L9.56656857,5.56635257 C9.56656857,5.25353025 9.31282231,5 9,5 C8.68696169,5 8.43343143,5.25353025 8.43343143,5.56635257 L8.43343143,8.43364743 L5.56656857,8.43364743 C5.25374625,8.43364743 5,8.68717769 5,9.000216 C5,9.31303831 5.25374625,9.56678457 5.56656857,9.56678457 L8.43321543,9.56678457 L8.43321543,12.4336474 C8.43321543,12.7464697 8.68696169,13 8.999784,13 C9.31260631,13 9.56635257,12.7464697 9.56635257,12.4336474 L9.56635257,9.56656857 L12.4334314,9.56656857 C12.7462537,9.56656857 13,9.31282231 13,9 C13,8.68717769 12.7462537,8.43343143 12.4334314,8.43343143 L12.4334314,8.43343143 Z" id="Fill-4" fill="#81F0FF" sketch:type="MSShapeGroup"></path>
            </g>
        </g>
    </g>
</svg>