<?xml version="1.0" encoding="UTF-8" standalone="no"?>
<svg width="28px" height="26px" viewBox="0 0 28 26" version="1.1" xmlns="http://www.w3.org/2000/svg" xmlns:xlink="http://www.w3.org/1999/xlink" xmlns:sketch="http://www.bohemiancoding.com/sketch/ns">
    <!-- Generator: sketchtool 3.5.2 (25235) - http://www.bohemiancoding.com/sketch -->
    <title>tick8 copy</title>
    <desc>Created with sketchtool.</desc>
    <defs>
        <path id="path-1" d="M0,0 L28,0 L28,26 L0,26 L0,0 Z"></path>
    </defs>
    <g id="Page-1" stroke="none" stroke-width="1" fill="none" fill-rule="evenodd" sketch:type="MSPage">
        <g id="Web-ver.1.0-27.01.16" sketch:type="MSArtboardGroup" transform="translate(-235.000000, -261.000000)">
            <g id="tick8-copy" sketch:type="MSLayerGroup" transform="translate(235.000000, 261.000000)">
                <mask id="mask-2" sketch:name="Clip 2" fill="white">
                    <use xlink:href="#path-1"></use>
                </mask>
                <g id="Clip-2"></g>
                <path d="M25.2099983,7.20074531 C24.7744524,7.20074531 24.4204146,7.54084582 24.4204146,7.96004321 L24.4204146,21.8241831 C24.4204146,23.2893242 23.1808226,24.481565 21.6570808,24.481565 L4.34283565,24.481565 C2.8191774,24.481565 1.57925096,23.2893242 1.57925096,21.8241831 L1.57925096,5.17581693 C1.57925096,3.71067583 2.8191774,2.51843504 4.34283565,2.51843504 L21.6570808,2.51843504 C22.093379,2.51843504 22.446748,2.17873644 22.446748,1.75921752 C22.446748,1.34002013 22.093379,1 21.6570808,1 L4.34283565,1 C1.94858719,1 0,2.87324564 0,5.17581693 L0,21.8241831 C0,24.1267544 1.94858719,26 4.34283565,26 L21.6570808,26 C24.0520816,26 26,24.1267544 26,21.8241831 L26,7.96004321 C25.9996656,7.54084582 25.646631,7.20074531 25.2099983,7.20074531 L25.2099983,7.20074531 Z" id="Fill-1" fill="#7E7E7E" sketch:type="MSShapeGroup" mask="url(#mask-2)"></path>
                <path d="M27.7741808,0.231193581 C27.4728437,-0.0770645269 26.9843036,-0.0770645269 26.6838645,0.231193581 L11.1889629,16.0941993 L7.31615593,12.1294717 C7.0150637,11.8209629 6.52709509,11.8209629 6.22575794,12.1294717 C5.92474735,12.4377299 5.92474735,12.9375627 6.22575794,13.2458208 L10.6445803,17.7688064 C10.795453,17.9229355 10.9925345,18 11.1899426,18 C11.3873506,18 11.5847587,17.9229355 11.7352232,17.7688064 C11.7352232,17.7681377 11.7352232,17.7678034 11.7358763,17.7674691 L27.7741808,1.34779338 C28.0752731,1.03953527 28.0752731,0.539368104 27.7741808,0.231193581 L27.7741808,0.231193581 Z" id="Fill-3" fill="#7E7E7E" sketch:type="MSShapeGroup" mask="url(#mask-2)"></path>
            </g>
        </g>
    </g>
</svg>