<?xml version="1.0" encoding="UTF-8" standalone="no"?>
<svg width="33px" height="36px" viewBox="0 0 33 36" version="1.1" xmlns="http://www.w3.org/2000/svg" xmlns:xlink="http://www.w3.org/1999/xlink" xmlns:sketch="http://www.bohemiancoding.com/sketch/ns">
    <!-- Generator: sketchtool 3.5.2 (25235) - http://www.bohemiancoding.com/sketch -->
    <title>Group 13</title>
    <desc>Created with sketchtool.</desc>
    <defs></defs>
    <g id="Page-1" stroke="none" stroke-width="1" fill="none" fill-rule="evenodd" sketch:type="MSPage">
        <g id="Web-ver.1.0-27.01.16" sketch:type="MSArtboardGroup" transform="translate(-503.000000, -397.000000)" fill="#FFFFFF">
            <g id="Group-13" sketch:type="MSLayerGroup" transform="translate(503.000000, 397.000000)">
                <path d="M29.0881907,2 L3.89477995,2 C1.19584352,2 -1,4.24108055 -1,6.99561833 L-1,29.3540213 C-1,30.8759648 0.213105134,32.1140613 1.70432763,32.1140613 L3.89477995,32.1140613 C4.59982885,32.1140613 5.24257946,31.8370268 5.72462103,31.3839197 C6.09430318,32.4589572 7.09817848,33.2320688 8.27611247,33.2320688 L24.7064303,33.2320688 C25.8844499,33.2320688 26.8883252,32.4589572 27.2583496,31.3839197 C27.7403912,31.8370268 28.3827995,32.1140613 29.0881907,32.1140613 L31.278643,32.1140613 C32.7698655,32.1140613 33.9829707,30.8759648 33.9829707,29.3540213 L33.9829707,6.99561833 C33.9829707,4.24108055 31.7871271,2 29.0881907,2 L29.0881907,2 Z M23.2761369,15.4152165 L14.4448411,6.40163591 L15.731198,6.40163591 L24.5624083,15.4152165 L23.2761369,15.4152165 Z M20.5377506,15.4152165 L11.7064548,6.40163591 L12.9928117,6.40163591 L21.824022,15.4152165 L20.5377506,15.4152165 Z M17.7993643,15.4152165 L8.96806846,6.40163591 L10.2544254,6.40163591 L19.0856357,15.4152165 L17.7993643,15.4152165 Z M15.060978,15.4152165 L6.99617359,7.18426735 C6.91830073,7.10444087 6.82108802,7.05605588 6.72011002,7.03858838 C6.87790954,6.71858374 7.17707824,6.48390785 7.53409535,6.42006412 L16.3472494,15.4152165 L15.060978,15.4152165 Z M12.3225917,15.4152165 L6.59910758,9.57347232 L6.59910758,8.26096419 L13.6088631,15.4152165 L12.3225917,15.4152165 Z M9.58420538,15.4152165 L6.59910758,12.3682727 L6.59910758,11.0557646 L10.8704768,15.4152165 L9.58420538,15.4152165 Z M6.59910758,13.8503029 L8.13209046,15.4152165 L7.72860636,15.4152165 C7.1058802,15.4152165 6.59910758,14.8980037 6.59910758,14.262012 L6.59910758,13.8503029 Z M25.8456846,15.2425502 L17.1832274,6.40163591 L18.4695844,6.40163591 L26.3658068,14.4609668 C26.3093276,14.7911899 26.1150733,15.0726787 25.8456846,15.2425502 L25.8456846,15.2425502 Z M21.2079707,6.40163591 L26.3838631,11.6845946 L26.3838631,12.9970154 L19.9216137,6.40163591 L21.2079707,6.40163591 Z M23.946357,6.40163591 L26.3838631,8.88979428 L26.3838631,10.2022151 L22.66,6.40163591 L23.946357,6.40163591 Z M25.4104523,6.41429985 C25.908154,6.4849559 26.3023105,6.88714514 26.3717971,7.3951001 L25.4104523,6.41429985 Z M8.24205379,3.04805014 L24.7409169,3.04805014 L24.7409169,5.35358577 L8.24205379,5.35358577 L8.24205379,3.04805014 Z M3.89477995,31.0660112 L1.70432763,31.0660112 C0.779352078,31.0660112 0.0268948655,30.2980525 0.0268948655,29.3540213 L0.0268948655,6.99561833 C0.0268948655,4.81899286 1.76209046,3.04805014 3.89477995,3.04805014 L7.21515892,3.04805014 L7.21515892,5.41742949 C6.27315403,5.65315344 5.57221271,6.52172499 5.57221271,7.55484041 L5.57221271,29.3540213 C5.57221271,30.2980525 4.8197555,31.0660112 3.89477995,31.0660112 L3.89477995,31.0660112 Z M26.3838631,30.4720288 C26.3838631,31.4160599 25.6314059,32.1840187 24.7064303,32.1840187 L8.27611247,32.1840187 C7.35156479,32.1840187 6.59910758,31.4160599 6.59910758,30.4720288 L6.59910758,29.9132434 C6.59910758,29.8542032 6.58909535,29.7975212 6.57138142,29.744682 C6.58943765,29.6170819 6.59910758,29.4867743 6.59910758,29.3540213 L6.59910758,16.1360129 C6.92771394,16.3431775 7.31476773,16.4632666 7.72860636,16.4632666 L25.2543643,16.4632666 C25.6682029,16.4632666 26.0552567,16.3431775 26.3838631,16.1360129 L26.3838631,29.3540213 C26.3838631,29.4867743 26.393533,29.6170819 26.4115892,29.744682 C26.3938753,29.7975212 26.3838631,29.8542032 26.3838631,29.9132434 L26.3838631,30.4720288 Z M32.9560758,29.3540213 C32.9560758,30.2980525 32.2036186,31.0660112 31.278643,31.0660112 L29.0881907,31.0660112 C28.1632152,31.0660112 27.4107579,30.2980525 27.4107579,29.3540213 L27.4107579,7.55484041 C27.4107579,6.52172499 26.7098166,5.65315344 25.7678117,5.41742949 L25.7678117,3.04805014 L29.0881907,3.04805014 C31.2207946,3.04805014 32.9560758,4.81899286 32.9560758,6.99561833 L32.9560758,29.3540213 Z" id="armchair" sketch:type="MSShapeGroup" transform="translate(16.500000, 17.677083) rotate(-270.000000) translate(-16.500000, -17.677083) "></path>
            </g>
        </g>
    </g>
</svg>